<svg xmlns="http://www.w3.org/2000/svg" viewBox="0 0 143 143">
    <defs>
        <style>
            .cls-1{opacity:.5;fill:url(#radial-gradient)}.cls-2{fill:#ffd042}.cls-3{fill:#ff9300}.cls-4{fill:#ff7400}.cls-5{fill:#ffedb9}.cls-6{fill:#d55a00}.cls-7{filter:url(#Ellipse_49)}
        </style>
        <radialGradient id="radial-gradient" cx=".5" cy=".5" r=".5">
            <stop offset="0" stop-color="#fff"/>
            <stop offset="1" stop-color="#fff" stop-opacity="0"/>
        </radialGradient>
        <filter id="Ellipse_49" width="143" height="143" x="0" y="0" filterUnits="userSpaceOnUse">
            <feOffset dy="3"/>
            <feGaussianBlur result="blur" stdDeviation="7.5"/>
            <feFlood flood-opacity=".502"/>
            <feComposite in2="blur" operator="in"/>
            <feComposite in="SourceGraphic"/>
        </filter>
    </defs>
    <g id="Group_16" data-name="Group 16" transform="translate(-251.5 -382.5)">
        <g class="cls-7" transform="translate(251.5 382.5)">
            <circle id="Ellipse_49-2" cx="49" cy="49" r="49" class="cls-1" data-name="Ellipse 49" transform="translate(22.5 19.5)"/>
        </g>
        <g id="jupiter" transform="translate(294 422)">
            <path id="Path_22" d="M412.665 73.326q.143.148.284.3-.141-.152-.284-.3z" class="cls-2" data-name="Path 22" transform="translate(-362.801 -64.466)"/>
            <path id="Path_23" d="M423.028 84.774q.263.31.518.627-.255-.317-.518-.627z" class="cls-2" data-name="Path 23" transform="translate(-371.912 -74.53)"/>
            <path id="Path_24" d="M415.641 76.469q.269.289.531.585-.262-.296-.531-.585z" class="cls-2" data-name="Path 24" transform="translate(-365.418 -67.229)"/>
            <path id="Path_25" d="M382.135 46.614l.273.2-.273-.2z" class="cls-2" data-name="Path 25" transform="translate(-335.96 -40.981)"/>
            <path id="Path_26" d="M404.606 65.36q.144.136.286.274-.142-.134-.286-.274z" class="cls-2" data-name="Path 26" transform="translate(-355.716 -57.462)"/>
            <path id="Path_27" d="M386.124 49.618q.217.167.431.338-.214-.171-.431-.338z" class="cls-2" data-name="Path 27" transform="translate(-339.467 -43.622)"/>
            <path id="Path_28" d="M427.638 90.371q.136.17.269.342-.133-.172-.269-.342z" class="cls-2" data-name="Path 28" transform="translate(-375.965 -79.451)"/>
            <path id="Path_29" d="M391.07 53.522q.3.247.6.5-.295-.253-.6-.5z" class="cls-2" data-name="Path 29" transform="translate(-343.816 -47.055)"/>
            <path id="Path_30" d="M399.639 60.812q.286.255.565.517-.279-.263-.565-.517z" class="cls-2" data-name="Path 30" transform="translate(-351.349 -53.464)"/>
            <path id="Path_31" d="M396.176 57.775q.143.123.285.248l-.285-.248z" class="cls-2" data-name="Path 31" transform="translate(-348.305 -50.794)"/>
            <path id="Path_32" d="M420.349 81.668q.14.16.278.321-.138-.161-.278-.321z" class="cls-2" data-name="Path 32" transform="translate(-369.557 -71.8)"/>
            <path id="Path_33" d="M269.649 476.7q-.689.115-1.389.2.7-.082 1.389-.2z" class="cls-2" data-name="Path 33" transform="translate(-235.845 -419.101)"/>
            <path id="Path_34" d="M263.063 478.671l-.311.03z" class="cls-2" data-name="Path 34" transform="translate(-231.003 -420.832)"/>
            <path id="Path_35" d="M281.733 475.741z" class="cls-2" data-name="Path 35" transform="translate(-247.278 -418.256)"/>
            <path id="Path_36" d="M257.432 479.2l-.3.022z" class="cls-2" data-name="Path 36" transform="translate(-226.064 -421.296)"/>
            <path id="Path_37" d="M251.739 479.6l-.278.015z" class="cls-2" data-name="Path 37" transform="translate(-221.076 -421.647)"/>
            <path id="Path_38" d="M286.932 474.649q-.248.053-.5.1.252-.049.5-.1z" class="cls-2" data-name="Path 38" transform="translate(-251.824 -417.296)"/>
            <path id="Path_39" d="M479.139 219.72l.023.278-.023-.278z" class="cls-2" data-name="Path 39" transform="translate(-421.243 -193.171)"/>
            <path id="Path_40" d="M479.646 226.995c0 .075.007.15.011.226l-.011-.226z" class="cls-2" data-name="Path 40" transform="translate(-421.689 -199.566)"/>
            <path id="Path_41" d="M479.881 232.748c0 .07 0 .139.006.209l-.006-.209z" class="cls-2" data-name="Path 41" transform="translate(-421.895 -204.624)"/>
            <path id="Path_42" d="M478.571 213.8l.036.354-.036-.354z" class="cls-2" data-name="Path 42" transform="translate(-420.744 -187.968)"/>
            <path id="Path_43" d="M363.255 34.04l.251.152z" class="cls-2" data-name="Path 43" transform="translate(-319.362 -29.927)"/>
            <path id="Path_44" d="M299.5 7.438l.164.043z" class="cls-2" data-name="Path 44" transform="translate(-263.309 -6.539)"/>
            <path id="Path_45" d="M293.363 5.963l.153.035z" class="cls-2" data-name="Path 45" transform="translate(-257.915 -5.242)"/>
            <path id="Path_46" d="M310.779 10.615l.182.057z" class="cls-2" data-name="Path 46" transform="translate(-273.227 -9.332)"/>
            <path id="Path_47" d="M287.989 4.8l.144.03z" class="cls-2" data-name="Path 47" transform="translate(-253.19 -4.223)"/>
            <path id="Path_48" d="M377.541 43.314q.179.125.355.253-.177-.128-.355-.253z" class="cls-2" data-name="Path 48" transform="translate(-331.921 -38.08)"/>
            <path id="Path_49" d="M316.042 12.307l.153.051z" class="cls-2" data-name="Path 49" transform="translate(-277.854 -10.82)"/>
            <path id="Path_50" d="M264.355 1.223l.091.01z" class="cls-2" data-name="Path 50" transform="translate(-232.412 -1.075)"/>
            <path id="Path_51" d="M252.258.309h.053z" class="cls-2" data-name="Path 51" transform="translate(-221.777 -.272)"/>
            <path id="Path_52" d="M276.268 2.726l.121.019z" class="cls-2" data-name="Path 52" transform="translate(-242.886 -2.397)"/>
            <path id="Path_53" d="M281.682 3.616l.154.027z" class="cls-2" data-name="Path 53" transform="translate(-247.645 -3.179)"/>
            <path id="Path_54" d="M304.82 8.866l.152.042z" class="cls-2" data-name="Path 54" transform="translate(-267.988 -7.795)"/>
            <path id="Path_55" d="M321.817 14.316l.2.073z" class="cls-2" data-name="Path 55" transform="translate(-282.931 -12.586)"/>
            <path id="Path_56" d="M348.163 25.71l.285.146z" class="cls-2" data-name="Path 56" transform="translate(-306.093 -22.603)"/>
            <path id="Path_57" d="M353.331 28.4l.24.13z" class="cls-2" data-name="Path 57" transform="translate(-310.637 -24.972)"/>
            <path id="Path_58" d="M372.861 40.116l.262.176z" class="cls-2" data-name="Path 58" transform="translate(-327.807 -35.269)"/>
            <path id="Path_59" d="M368.1 37.022q.169.107.337.217-.173-.11-.337-.217z" class="cls-2" data-name="Path 59" transform="translate(-323.617 -32.549)"/>
            <path id="Path_60" d="M358.289 31.142l.315.182z" class="cls-2" data-name="Path 60" transform="translate(-314.996 -27.379)"/>
            <path id="Path_61" d="M327.023 16.275l.153.059z" class="cls-2" data-name="Path 61" transform="translate(-287.508 -14.308)"/>
            <path id="Path_62" d="M343.11 23.228l.227.109z" class="cls-2" data-name="Path 62" transform="translate(-301.651 -20.421)"/>
            <path id="Path_63" d="M332.6 18.525l.214.091z" class="cls-2" data-name="Path 63" transform="translate(-292.41 -16.287)"/>
            <path id="Path_64" d="M337.726 20.745l.239.108z" class="cls-2" data-name="Path 64" transform="translate(-296.917 -18.238)"/>
            <path id="Path_65" d="M408.382 69.017q-.27-.279-.548-.551.277.272.548.551z" class="cls-2" data-name="Path 65" transform="translate(-358.554 -60.193)"/>
            <path id="Path_66" d="M434.846 99.881q.208.3.409.6-.359-.545-.741-1.073.167.231.329.465z" class="cls-2" data-name="Path 66" transform="translate(-382.011 -87.401)"/>
            <path id="Path_67" d="M37.222 250.357a81.982 81.982 0 0 1-11.207-.746 28.787 28.787 0 0 0 1.049 4.274c-7.045-.874-12.876-2.625-16.36-4.875l-.017-.01q-.166-.108-.325-.217l-.044-.03q-.165-.114-.323-.23l-.03-.023c-.091-.067-.179-.135-.266-.2l-.07-.055a9.373 9.373 0 0 1-.277-.229 28.868 28.868 0 0 0 4.184 8.711 36.077 36.077 0 0 0 4.936 1.725q.959.265 1.98.5.564.131 1.146.254l-.005-.011-.038-.081a11.62 11.62 0 0 1-.316-.767c-.037-.1-.074-.2-.11-.312s-.071-.22-.1-.334-.057-.206-.081-.31a3.859 3.859 0 0 1-.119-.869c0-.052 0-.1.006-.152a1.44 1.44 0 0 1 .041-.253.945.945 0 0 1 .079-.2.729.729 0 0 1 .045-.087.756.756 0 0 1 .683-.294q.1 0 .205.008h.057l.149.01.079.008.128.013.092.012.117.015.1.015.114.018.1.018.112.021.1.022.111.024.106.025.109.026.108.028.108.028.109.031.109.031.108.033.111.034.108.035.112.036.109.037.113.039.108.038.116.042.106.039.119.044.1.04.122.047.1.041.125.051.1.041.13.054.1.04.136.058.091.039.142.062.086.038.148.066.081.037.156.071.071.033.171.079.056.026.186.087.043.02.2.1.026.012c.5.241 1.016.491 1.533.743a28.782 28.782 0 0 1-1.752-4.159 85.461 85.461 0 0 0 19.477.1l3.785-.527c6.68-1.119 11.975-3.067 14.764-5.455a28.868 28.868 0 0 1-4.183 8.71c-5.5 2.43-14.06 4.141-23.688 4-2.909-.044-5.751-1.371-8.421-2.671a29.077 29.077 0 0 0 4.767 6.729h.015l.009.009q1.785.074 3.63.076a73.653 73.653 0 0 0 17.893-2.044 28.909 28.909 0 0 1-11.691 5.52A29.009 29.009 0 0 0 66.222 240c0 .969-.05 1.926-.143 2.871-3.61 4.323-15.159 7.486-28.857 7.486z" class="cls-2" data-name="Path 67" transform="translate(-8.222 -211)"/>
            <path id="Path_68" d="M245.689.075h-.157.012z" class="cls-2" data-name="Path 68" transform="translate(-215.864 -.062)"/>
            <path id="Path_69" d="M430.292 93.763l.027.038.154.209q-.251-.345-.512-.683.167.216.33.437z" class="cls-2" data-name="Path 69" transform="translate(-378.007 -82.05)"/>
            <path id="Path_70" d="M258.235.687l-.112-.009.062.005z" class="cls-2" data-name="Path 70" transform="translate(-226.933 -.596)"/>
            <path id="Path_71" d="M187.628 109.549c.2.325.393.653.579.987-5.333 2.882-14.683 4.794-25.332 4.794-2.668 0-5.255-.12-7.717-.345a28.812 28.812 0 0 0-2.883 6.929h.006q1.513.2 3.1.339c5.515.374 9.119 2.708 12.525 3.318a1.039 1.039 0 0 0 1.057-1.6l-1.042-1.537c10.3-.6 18.8-3.009 22.7-6.244a28.947 28.947 0 0 1 1.057 5.054 28.824 28.824 0 0 0-4.518-12.444q.243.371.475.75zm-23.3 13.169c-.8 0-1.45-.433-1.45-.967s.649-.967 1.45-.967 1.45.433 1.45.967-.652.967-1.453.967z" class="cls-2" data-name="Path 71" transform="translate(-133.875 -95.652)"/>
            <path id="Path_72" d="M269.959 1.86l-.155-.019.145.018z" class="cls-2" data-name="Path 72" transform="translate(-237.203 -1.619)"/>
            <path id="Path_73" d="M245.748 479.872l.233-.008z" class="cls-2" data-name="Path 73" transform="translate(-216.053 -421.881)"/>
            <path id="Path_74" d="M189.942 474.749l-.5-.1.5.1z" class="cls-3" data-name="Path 74" transform="translate(-166.552 -417.294)"/>
            <path id="Path_75" d="M232.556 479.872l-.233-.008z" class="cls-3" data-name="Path 75" transform="translate(-204.251 -421.881)"/>
            <path id="Path_76" d="M195.315 475.825a25.892 25.892 0 0 1-.471-.086c.156.03.313.061.471.086z" class="cls-3" data-name="Path 76" transform="translate(-171.3 -418.254)"/>
            <path id="Path_77" d="M201.621 476.9q-.7-.082-1.393-.2.691.116 1.393.2z" class="cls-3" data-name="Path 77" transform="translate(-176.034 -419.1)"/>
            <path id="Path_78" d="M220.7 479.221l-.3-.022z" class="cls-3" data-name="Path 78" transform="translate(-193.767 -421.296)"/>
            <path id="Path_79" d="M214.985 478.7l-.312-.03z" class="cls-3" data-name="Path 79" transform="translate(-188.733 -420.832)"/>
            <path id="Path_80" d="M226.514 479.613l-.278-.015z" class="cls-3" data-name="Path 80" transform="translate(-198.899 -421.647)"/>
            <path id="Path_81" d="M13.21 264.317q-.682-.444-1.337-.924l-.144-.106a31.847 31.847 0 0 1-.622-.474c.233.06.47.118.708.176l.11.026q.37.088.747.173a72.833 72.833 0 0 0 12.671 1.584 29.077 29.077 0 0 1-4.767-6.729c-.511-.249-1.016-.5-1.515-.734l-.026-.012-.2-.1-.043-.02-.186-.087-.056-.026-.171-.079-.071-.033-.156-.071-.081-.037-.148-.066-.086-.038-.142-.062-.091-.039-.136-.058-.1-.04-.13-.054-.1-.041-.125-.051-.1-.041-.122-.047-.1-.04-.119-.044-.106-.039-.116-.042-.108-.038-.113-.039-.109-.037-.112-.036-.108-.035-.111-.034-.108-.033-.109-.031-.109-.031-.108-.028-.108-.028-.109-.026-.106-.025-.111-.024-.1-.022-.112-.021-.1-.018-.114-.018-.1-.015-.117-.015-.092-.012-.128-.013-.079-.008-.149-.01h-.057q-.1-.005-.205-.008a.756.756 0 0 0-.683.294.771.771 0 0 0-.051.083.949.949 0 0 0-.079.2 1.443 1.443 0 0 0-.041.253c0 .049-.005.1-.006.152a3.861 3.861 0 0 0 .119.869c.025.1.052.208.081.31s.068.225.1.334.073.213.11.312c.128.348.253.629.316.767l.038.081.005.011q-.582-.123-1.146-.254-1.021-.238-1.98-.5a36.094 36.094 0 0 1-4.936-1.724 28.867 28.867 0 0 1-4.184-8.711c.09.077.183.153.277.229l.07.055c.087.068.175.136.266.2l.03.023q.157.116.323.23l.044.03q.159.109.325.217l.016.011c3.485 2.25 9.315 4 16.36 4.875a28.787 28.787 0 0 1-1.049-4.274C10.358 248.578 4.4 246.549 1.3 244l-.033-.027q-.14-.116-.272-.233l-.043-.038a9.71 9.71 0 0 1-.274-.256l-.037-.038q-.109-.108-.212-.218l-.063-.067a6.543 6.543 0 0 1-.225-.256A29.784 29.784 0 0 1 0 240a29.009 29.009 0 0 0 22.8 28.333 28.841 28.841 0 0 1-9.533-3.98zm5.156-5.951a3.129 3.129 0 0 1 1.933 2.9c-.06 1.39-5.619-1.45-5.8-2.9s2.393-.866 3.868.001z" class="cls-3" data-name="Path 81" transform="translate(0 -211)"/>
            <path id="Path_82" d="M254.409.434l.345.022z" class="cls-3" data-name="Path 82" transform="translate(-223.668 -.382)"/>
            <path id="Path_83" d="M240 0h.52-.52z" class="cls-3" data-name="Path 83" transform="translate(-211)"/>
            <path id="Path_84" d="M222.568.434q.208-.015.417-.027z" class="cls-3" data-name="Path 84" transform="translate(-195.674 -.358)"/>
            <path id="Path_85" d="M236.291 0h-.51.51z" class="cls-3" data-name="Path 85" transform="translate(-207.291)"/>
            <path id="Path_86" d="M438.176 104.708h.006q-.232-.379-.474-.75l-.04-.061q-.2-.305-.409-.6c.319.456.623.929.917 1.411z" class="cls-3" data-name="Path 86" transform="translate(-384.423 -90.81)"/>
            <path id="Path_87" d="M216.771 4.823l.041.02.29.148.21.109.148.079q.176.094.351.19l.04.022.2.111.072.038q.888.505 1.735 1.071l.022.016q-1.236.055-2.444.214-.9.158-1.827.3a28.98 28.98 0 0 0-16.781 10.015c1.617.093 3.278.142 4.972.142 2.1 0 4.147-.074 6.125-.215q.567-.04 1.125-.088l3.533-.384a49.615 49.615 0 0 0 12.5-3.135q-.163-.22-.33-.437l-.011-.015q-.133-.172-.269-.342l-.039-.049q-.255-.317-.518-.627l-.046-.054q-.138-.162-.278-.321l-.038-.043q-.261-.3-.531-.585l-.075-.081-.284-.3-.036-.037q-.27-.279-.548-.551l-.1-.1q-.142-.138-.286-.274l-.035-.033q-.279-.262-.565-.517l-.134-.119a23.015 23.015 0 0 0-.285-.248l-.014-.012q-.3-.255-.6-.5l-.166-.134q-.214-.171-.431-.338l-.209-.16a10.6 10.6 0 0 0-.273-.2l-.2-.146q-.177-.128-.355-.253l-.3-.21-.262-.176-.239-.157-.337-.217q-.169-.108-.333-.208l-.251-.152-.285-.168-.315-.182-.359-.2-.24-.13q-.169-.091-.34-.179l-.285-.146q-.191-.1-.384-.191l-.227-.109q-.2-.1-.412-.192l-.239-.108q-.2-.09-.406-.178L214.991 4q-.259-.109-.521-.213l-.153-.059q-.214-.083-.43-.164l-.2-.073q-.271-.1-.545-.192l-.153-.051q-.226-.075-.454-.147l-.182-.057q-.283-.087-.568-.169l-.152-.042q-.239-.067-.479-.13l-.164-.043q-.293-.075-.589-.144l-.153-.035q-.252-.057-.505-.11l-.144-.03q-.3-.061-.608-.116l-.154-.027q-.266-.047-.533-.088l-.121-.019q-.311-.047-.625-.087a28.779 28.779 0 0 1 9.213 2.819z" class="cls-3" data-name="Path 87" transform="translate(-174.802 -1.761)"/>
            <path id="Path_88" d="M433.445 97.977q-.163-.234-.329-.465l-.038-.053-.154-.209q.266.359.521.727z" class="cls-3" data-name="Path 88" transform="translate(-380.612 -85.499)"/>
            <path id="Path_89" d="M250.444.233h-.08L250.1.217z" class="cls-3" data-name="Path 89" transform="translate(-219.883 -.191)"/>
            <path id="Path_90" d="M259 .75l-.316-.027h-.05z" class="cls-3" data-name="Path 90" transform="translate(-227.384 -.633)"/>
            <path id="Path_91" d="M267.458 1.564l-.145-.018-.342-.041q.244.027.487.059z" class="cls-3" data-name="Path 91" transform="translate(-234.712 -1.323)"/>
            <path id="Path_92" d="M263.223 1.118l-.13-.014-.093-.009-.186-.018z" class="cls-3" data-name="Path 92" transform="translate(-231.059 -.947)"/>
            <path id="Path_93" d="M245.991.082l-.214-.006h-.145z" class="cls-3" data-name="Path 93" transform="translate(-215.951 -.063)"/>
            <path id="Path_94" d="M231.891.068H231.742l-.215.007z" class="cls-3" data-name="Path 94" transform="translate(-203.551 -.06)"/>
            <path id="Path_95" d="M227.46.2l-.267.011-.108.006z" class="cls-3" data-name="Path 95" transform="translate(-199.646 -.18)"/>
            <path id="Path_96" d="M236.815 0h-.438.438z" class="cls-4" data-name="Path 96" transform="translate(-207.815)"/>
            <path id="Path_97" d="M353.37 28.48q-.175-.1-.351-.19.176.094.351.19z" class="cls-4" data-name="Path 97" transform="translate(-310.363 -24.872)"/>
            <path id="Path_98" d="M355.271 31.285l-.022-.016q-.848-.565-1.735-1.071l-.072-.038-.2-.111q.881.489 1.723 1.036a62.4 62.4 0 0 1-2.137.414q1.206-.157 2.443-.214z" class="cls-4" data-name="Path 98" transform="translate(-310.194 -26.418)"/>
            <path id="Path_99" d="M347.368 25.363l-.041-.02z" class="cls-4" data-name="Path 99" transform="translate(-305.358 -22.281)"/>
            <path id="Path_100" d="M350.269 26.844l-.21-.109z" class="cls-4" data-name="Path 100" transform="translate(-307.76 -23.505)"/>
            <path id="Path_101" d="M47.965 23.788l.341.133.192.072.326.12.2.072.354.124.178.062q.256.087.517.171l.225.071.32.1.28.085.274.082.308.089.248.07.339.094.174.046q.678.181 1.386.349l.125.03.468.107.112.025.508.111h.006a72.117 72.117 0 0 0 10.791 1.4 28.98 28.98 0 0 1 16.781-10.015 81.1 81.1 0 0 1-11.807.837 76.738 76.738 0 0 1-15.759-1.545 29 29 0 0 1 6.2-3.047c-.261.091-.522.184-.779.282-.149.057-.3.116-.443.175q-.567.227-1.121.478c-.126.057-.254.113-.379.171-.463.217-.921.444-1.37.684l-.063.032q-.747.4-1.467.846l-.113.072q-.635.4-1.247.823l-.261.185q-.556.4-1.092.817c-.076.059-.152.118-.226.178a29.2 29.2 0 0 0-3.605 3.435l-.125.144q-.487.558-.945 1.14l-.136.173c-.118.152-.233.307-.348.461q.235.1.477.2z" class="cls-4" data-name="Path 101" transform="translate(-41.612 -11.809)"/>
            <path id="Path_102" d="M166.055 7c-.043.011-.088.019-.131.03-.536.137-1.066.291-1.59.458-.123.039-.244.083-.366.124l-.036.012q1.1-.37 2.247-.654z" class="cls-4" data-name="Path 102" transform="translate(-144.123 -6.13)"/>
            <path id="Path_103" d="M208.617 100.109a31.42 31.42 0 0 0-1.497-2.404q-.255-.368-.521-.727l-.027-.038a49.616 49.616 0 0 1-12.5 3.135l-3.533.384q-.559.048-1.125.088a86.244 86.244 0 0 1-6.125.215c-1.694 0-3.355-.049-4.972-.142a29.034 29.034 0 0 0-2.743 3.94l-.08-.008.077.007a85.03 85.03 0 0 0 7.718.345c10.645-.004 19.994-1.913 25.328-4.795z" class="cls-5" data-name="Path 103" transform="translate(-154.285 -85.225)"/>
            <path id="Path_104" d="M48.085 131.587l-.165-.069z" class="cls-5" data-name="Path 104" transform="translate(-42.13 -115.626)"/>
            <path id="Path_105" d="M43.589 129.653l-.022-.01z" class="cls-5" data-name="Path 105" transform="translate(-38.303 -113.978)"/>
            <path id="Path_106" d="M38.407 127.258l-.149-.071z" class="cls-5" data-name="Path 106" transform="translate(-33.635 -111.819)"/>
            <path id="Path_107" d="M131.951 154.346l-.2-.032z" class="cls-5" data-name="Path 107" transform="translate(-115.835 -135.668)"/>
            <path id="Path_108" d="M52.692 133.458l-.17-.067z" class="cls-5" data-name="Path 108" transform="translate(-46.176 -117.273)"/>
            <path id="Path_109" d="M124.34 153.017l-.268-.049z" class="cls-5" data-name="Path 109" transform="translate(-109.08 -134.484)"/>
            <path id="Path_110" d="M118.114 151.847l-.264-.051z" class="cls-5" data-name="Path 110" transform="translate(-103.61 -133.454)"/>
            <path id="Path_111" d="M30.357 123.183h.008-.008z" class="cls-5" data-name="Path 111" transform="translate(-26.689 -108.298)"/>
            <path id="Path_112" d="M104.476 148.989l-.242-.054z" class="cls-5" data-name="Path 112" transform="translate(-91.639 -130.939)"/>
            <path id="Path_113" d="M92.632 146.159l-.109-.028z" class="cls-5" data-name="Path 113" transform="translate(-81.343 -128.473)"/>
            <path id="Path_114" d="M98.589 147.625l-.239-.056z" class="cls-5" data-name="Path 114" transform="translate(-86.466 -129.738)"/>
            <path id="Path_115" d="M111.7 150.557l-.152-.031z" class="cls-5" data-name="Path 115" transform="translate(-98.069 -132.337)"/>
            <path id="Path_116" d="M85.835 144.36l-.218-.059z" class="cls-5" data-name="Path 116" transform="translate(-75.272 -126.865)"/>
            <path id="Path_117" d="M138.8 155.443l-.287-.044z" class="cls-5" data-name="Path 117" transform="translate(-121.775 -136.622)"/>
            <path id="Path_118" d="M58.483 135.678l-.038-.014z" class="cls-5" data-name="Path 118" transform="translate(-51.383 -119.271)"/>
            <path id="Path_119" d="M63.469 137.459l-.188-.065z" class="cls-5" data-name="Path 119" transform="translate(-55.635 -120.792)"/>
            <path id="Path_120" d="M68.541 139.173l-.193-.063z" class="cls-5" data-name="Path 120" transform="translate(-60.089 -122.301)"/>
            <path id="Path_121" d="M80.342 142.818l-.212-.061z" class="cls-5" data-name="Path 121" transform="translate(-70.448 -125.507)"/>
            <path id="Path_122" d="M74.865 141.189l-.068-.021z" class="cls-5" data-name="Path 122" transform="translate(-65.759 -124.11)"/>
            <path id="Path_123" d="M34.3 125.24l-.144-.072z" class="cls-5" data-name="Path 123" transform="translate(-30.03 -110.044)"/>
            <path id="Path_124" d="M31.256 98.642l.137-.214a30.46 30.46 0 0 1 1-1.448v-.005q.238.1.484.2-.242-.1-.477-.2h-.007a29.036 29.036 0 0 0-2.044 3.167c.292-.512.594-1.01.907-1.5z" class="cls-5" data-name="Path 124" transform="translate(-26.688 -85.256)"/>
            <path id="Path_125" d="M160.543 158.375l-.305-.035z" class="cls-5" data-name="Path 125" transform="translate(-140.876 -139.207)"/>
            <path id="Path_126" d="M145.352 156.412l-.288-.041z" class="cls-5" data-name="Path 126" transform="translate(-127.535 -137.476)"/>
            <path id="Path_127" d="M167.384 159.131l-.306-.032z" class="cls-5" data-name="Path 127" transform="translate(-146.889 -139.875)"/>
            <path id="Path_128" d="M153.343 157.5l-.224-.028z" class="cls-5" data-name="Path 128" transform="translate(-134.617 -138.441)"/>
            <path id="Path_129" d="M104.456 114.7l-.112-.025z" class="cls-5" data-name="Path 129" transform="translate(-91.736 -100.818)"/>
            <path id="Path_130" d="M61.691 102.553l-.354-.124z" class="cls-5" data-name="Path 130" transform="translate(-53.925 -90.052)"/>
            <path id="Path_131" d="M66.261 104.136q-.262-.085-.517-.171.256.087.517.171z" class="cls-5" data-name="Path 131" transform="translate(-57.8 -91.403)"/>
            <path id="Path_132" d="M57.31 100.955l-.326-.12z" class="cls-5" data-name="Path 132" transform="translate(-50.098 -88.651)"/>
            <path id="Path_133" d="M86.7 110.315l-.174-.046z" class="cls-5" data-name="Path 133" transform="translate(-76.072 -96.945)"/>
            <path id="Path_134" d="M52.919 99.269l-.341-.133z" class="cls-5" data-name="Path 134" transform="translate(-46.225 -87.157)"/>
            <path id="Path_135" d="M99.565 113.571l-.125-.03z" class="cls-5" data-name="Path 135" transform="translate(-87.424 -99.821)"/>
            <path id="Path_136" d="M72.21 106.073l-.32-.1z" class="cls-5" data-name="Path 136" transform="translate(-63.203 -93.167)"/>
            <path id="Path_137" d="M77.128 107.586l-.274-.082z" class="cls-5" data-name="Path 137" transform="translate(-67.567 -94.514)"/>
            <path id="Path_138" d="M81.919 108.987l-.248-.07z" class="cls-5" data-name="Path 138" transform="translate(-71.802 -95.756)"/>
            <path id="Path_139" d="M109.483 115.8z" class="cls-5" data-name="Path 139" transform="translate(-96.249 -101.808)"/>
            <path id="Path_140" d="M118.394.842q-1.142.282-2.247.654l-.369.127a29 29 0 0 0-6.2 3.047 76.736 76.736 0 0 0 15.759 1.545 81.1 81.1 0 0 0 11.806-.837q.93-.138 1.827-.3a62.4 62.4 0 0 0 2.137-.414q-.842-.547-1.723-1.036l-.04-.022q-.175-.1-.351-.19l-.148-.079-.21-.109-.29-.148-.041-.02A28.786 28.786 0 0 0 129.1.242h-.011q-.243-.031-.487-.059l-.1-.01L128.1.13l-.139-.013-.366-.03-.062-.005-.1-.007-.353-.022-.18-.01-.34-.016-.181-.007-.359-.01h-1.341l-.364.01-.162.006-.375.017-.129.007q-.209.012-.417.027h-.07a28.81 28.81 0 0 0-4.768.765z" class="cls-6" data-name="Path 140" transform="translate(-96.339)"/>
            <path id="Path_141" d="M160.725 176.221l1.042 1.537a1.039 1.039 0 0 1-1.057 1.6c-3.406-.61-7.011-2.945-12.525-3.318q-1.586-.14-3.1-.339a29.032 29.032 0 0 0-.995 6.8h.008a88.141 88.141 0 0 0 11.581.742c12.738 0 23.732-2.555 28.946-6.258.024.479.054.957.054 1.443 0-.223 0-.445-.008-.667 0-.07 0-.139-.006-.209q-.007-.235-.018-.469c0-.075-.007-.151-.011-.226q-.016-.3-.038-.6a24.038 24.038 0 0 0-.023-.278c-.01-.12-.02-.241-.032-.361l-.036-.354a19.915 19.915 0 0 0-.028-.242 28.945 28.945 0 0 0-1.057-5.054c-3.895 3.244-12.401 5.653-22.697 6.253z" class="cls-3" data-name="Path 141" transform="translate(-126.68 -149.438)"/>
            <path id="Path_142" d="M.073 27.629a29.258 29.258 0 0 1 .248-2.357v-.018c.1-.66.225-1.31.368-1.955l.069-.3c.147-.631.309-1.257.5-1.872 3.168 2.632 9.389 4.715 17.142 5.725a28.813 28.813 0 0 1 2.883-6.929l-.077-.007q-.357-.033-.711-.069l-.306-.032-.521-.057-.305-.035-.636-.077-.224-.028q-.345-.044-.685-.092l-.288-.041-.5-.074-.287-.044q-.312-.048-.62-.1l-.2-.032q-.333-.056-.66-.114l-.268-.049-.488-.091-.264-.051q-.307-.06-.61-.122l-.152-.031q-.324-.068-.642-.138l-.242-.054-.472-.109-.239-.056q-.3-.072-.595-.146l-.109-.028q-.312-.079-.617-.162l-.218-.059L9.9 17.9l-.212-.061q-.291-.084-.576-.171l-.068-.021a41.12 41.12 0 0 1-.586-.185l-.199-.062-.424-.143-.188-.065a13.592 13.592 0 0 1-.546-.2l-.038-.014a28.322 28.322 0 0 1-.545-.207l-.17-.067q-.2-.078-.391-.158l-.165-.069c-.17-.072-.339-.144-.5-.217l-.022-.01c-.167-.074-.331-.15-.492-.226l-.149-.071q-.178-.085-.351-.172l-.144-.072c-.153-.078-.3-.156-.451-.235h-.008a29.006 29.006 0 0 1 2.044-3.167h.007c.115-.154.23-.309.348-.461l.136-.173q.458-.582.945-1.14l.125-.144a29.194 29.194 0 0 1 3.605-3.435l.226-.178q.536-.421 1.092-.817c.087-.062.173-.124.261-.185q.612-.426 1.247-.823l.113-.072q.72-.444 1.467-.846L15.347 4c.449-.24.907-.467 1.37-.684.126-.059.253-.114.379-.171q.555-.25 1.121-.478a24.126 24.126 0 0 1 1.222-.457q.184-.065.369-.127l.036-.012c.122-.041.243-.085.366-.124a28.393 28.393 0 0 1 1.59-.458c.043-.011.088-.019.131-.03l.123-.029a28.81 28.81 0 0 1 4.77-.76l-.084.006q-.317.024-.631.056l-.156.016c-.209.022-.418.045-.626.072l-.089.012q-.279.036-.555.078l-.162.024q-.3.046-.589.1l-.175.032q-.249.045-.5.1l-.139.027c-.188.039-.374.08-.56.122l-.214.049q-.27.063-.537.131l-.207.054-.387.1-.236.066q-.246.071-.491.146l-.27.084-.318.1q-.214.071-.427.145l-.272.1-.312.114-.236.09-.522.2-.169.069q-.35.144-.7.3l-.026.011q-.194.086-.386.175l-.032.015q-.381.177-.756.364h-.009A29.018 29.018 0 0 0 .2 26.18l-.028.243a21.093 21.093 0 0 0-.068.715l-.023.276q-.022.3-.038.6c0 .075-.007.151-.011.226q-.011.234-.018.469c0 .07 0 .139-.006.209-.008.225-.008.448-.008.671 0-.659.03-1.312.073-1.96z" class="cls-3" data-name="Path 142" transform="translate(0 -.589)"/>
            <path id="Path_143" d="M38.47 234.319a88.158 88.158 0 0 1-11.581-.742c-.007.253-.019.505-.019.76a29.125 29.125 0 0 0 .405 4.771c-7.436-1.032-13.4-3.056-16.5-5.6 3.1 2.546 9.056 4.575 16.491 5.607a81.981 81.981 0 0 0 11.207.746c13.7 0 25.247-3.163 28.857-7.486.093-.945.143-1.9.143-2.871 0-.485-.03-.963-.054-1.443-5.219 3.703-16.211 6.258-28.949 6.258z" class="cls-4" data-name="Path 143" transform="translate(-9.47 -200.505)"/>
            <path id="Path_144" d="M.143 242.871v-.023q-.068-.7-.1-1.4C.013 240.967 0 240.485 0 240c0 .969.05 1.926.143 2.871z" class="cls-4" data-name="Path 144" transform="translate(0 -211)"/>
            <path id="Path_145" d="M1.408 264.019z" class="cls-4" data-name="Path 145" transform="translate(-1.04 -231.892)"/>
            <path id="Path_146" d="M5.906 268.8q-.142-.127-.274-.256.132.131.274.256z" class="cls-4" data-name="Path 146" transform="translate(-4.951 -236.097)"/>
            <path id="Path_147" d="M3.779 266.653q-.109-.108-.212-.218.103.109.212.218z" class="cls-4" data-name="Path 147" transform="translate(-3.136 -234.241)"/>
            <path id="Path_148" d="M8.527 271.215q-.14-.116-.272-.233.132.118.272.233z" class="cls-4" data-name="Path 148" transform="translate(-7.258 -238.238)"/>
            <path id="Path_149" d="M189.8 314.993a28.869 28.869 0 0 0 4.183-8.71c-2.789 2.389-8.084 4.336-14.764 5.455l-3.785.527a85.456 85.456 0 0 1-19.476-.1 28.787 28.787 0 0 0 1.752 4.159c-.518-.252-1.029-.5-1.533-.743.5.238 1 .486 1.515.734 2.671 1.3 5.512 2.627 8.421 2.671 9.631.148 18.194-1.563 23.687-3.993z" class="cls-5" data-name="Path 149" transform="translate(-137.116 -269.274)"/>
            <path id="Path_150" d="M142.84 376.518l-.13-.054z" class="cls-5" data-name="Path 150" transform="translate(-125.466 -330.975)"/>
            <path id="Path_151" d="M140.97 375.757l-.125-.051z" class="cls-5" data-name="Path 151" transform="translate(-123.826 -330.308)"/>
            <path id="Path_152" d="M137.26 374.317l-.119-.044z" class="cls-5" data-name="Path 152" transform="translate(-120.57 -329.048)"/>
            <path id="Path_153" d="M144.711 377.3l-.136-.058z" class="cls-5" data-name="Path 153" transform="translate(-127.106 -331.662)"/>
            <path id="Path_154" d="M139.111 375.021l-.122-.047z" class="cls-5" data-name="Path 154" transform="translate(-122.194 -329.665)"/>
            <path id="Path_155" d="M146.593 378.114l-.142-.062z" class="cls-5" data-name="Path 155" transform="translate(-128.755 -332.371)"/>
            <path id="Path_156" d="M150.389 379.8l-.156-.071z" class="cls-5" data-name="Path 156" transform="translate(-132.08 -333.848)"/>
            <path id="Path_157" d="M148.484 378.947l-.148-.066z" class="cls-5" data-name="Path 157" transform="translate(-130.412 -333.1)"/>
            <path id="Path_158" d="M124.542 370.365l-.109-.026z" class="cls-5" data-name="Path 158" transform="translate(-109.397 -325.59)"/>
            <path id="Path_159" d="M122.755 369.963l-.111-.024z" class="cls-5" data-name="Path 159" transform="translate(-107.825 -325.238)"/>
            <path id="Path_160" d="M126.341 370.813l-.108-.028z" class="cls-5" data-name="Path 160" transform="translate(-110.98 -325.982)"/>
            <path id="Path_161" d="M152.283 380.669l-.171-.079z" class="cls-5" data-name="Path 161" transform="translate(-133.732 -334.602)"/>
            <path id="Path_162" d="M128.142 371.3l-.109-.031z" class="cls-5" data-name="Path 162" transform="translate(-112.562 -326.411)"/>
            <path id="Path_163" d="M133.586 373.006l-.113-.039z" class="cls-5" data-name="Path 163" transform="translate(-117.345 -327.9)"/>
            <path id="Path_164" d="M135.418 373.645l-.116-.042z" class="cls-5" data-name="Path 164" transform="translate(-118.953 -328.459)"/>
            <path id="Path_165" d="M129.94 371.831l-.111-.034z" class="cls-5" data-name="Path 165" transform="translate(-114.141 -326.872)"/>
            <path id="Path_166" d="M131.757 372.4l-.112-.036z" class="cls-5" data-name="Path 166" transform="translate(-115.738 -327.369)"/>
            <path id="Path_167" d="M105.773 368.863a.756.756 0 0 1 .683-.294q.1 0 .205.008c-.069 0-.137-.006-.205-.008a.757.757 0 0 0-.683.294z" class="cls-5" data-name="Path 167" transform="translate(-92.992 -324.033)"/>
            <path id="Path_168" d="M105.971 386.486c.033.114.068.225.1.334-.032-.109-.071-.22-.1-.334z" class="cls-5" data-name="Path 168" transform="translate(-93.166 -339.786)"/>
            <path id="Path_169" d="M14.426 310.336l.03.023z" class="cls-5" data-name="Path 169" transform="translate(-12.683 -272.837)"/>
            <path id="Path_170" d="M17.344 312.428l.044.03z" class="cls-5" data-name="Path 170" transform="translate(-15.248 -274.676)"/>
            <path id="Path_171" d="M110.351 398.177l.038.081z" class="cls-5" data-name="Path 171" transform="translate(-97.017 -350.064)"/>
            <path id="Path_172" d="M11.648 308.2l.07.055z" class="cls-5" data-name="Path 172" transform="translate(-10.241 -270.955)"/>
            <path id="Path_173" d="M9.352 306.3a28.867 28.867 0 0 0 4.184 8.711 36.077 36.077 0 0 0 4.936 1.724 36.077 36.077 0 0 1-4.936-1.725 28.868 28.868 0 0 1-4.184-8.71z" class="cls-5" data-name="Path 173" transform="translate(-8.222 -269.292)"/>
            <path id="Path_174" d="M20.4 314.475l.016.011z" class="cls-5" data-name="Path 174" transform="translate(-17.936 -276.476)"/>
            <path id="Path_175" d="M120.975 369.606l-.112-.021z" class="cls-5" data-name="Path 175" transform="translate(-106.259 -324.927)"/>
            <path id="Path_176" d="M105.3 383.921z" class="cls-5" data-name="Path 176" transform="translate(-92.574 -337.531)"/>
            <path id="Path_177" d="M154.175 381.548l-.186-.087z" class="cls-5" data-name="Path 177" transform="translate(-135.382 -335.368)"/>
            <path id="Path_178" d="M119.2 369.3l-.114-.018z" class="cls-5" data-name="Path 178" transform="translate(-104.7 -324.659)"/>
            <path id="Path_179" d="M156.089 382.448l-.2-.1z" class="cls-5" data-name="Path 179" transform="translate(-137.051 -336.151)"/>
            <path id="Path_180" d="M117.438 369.041l-.117-.015z" class="cls-5" data-name="Path 180" transform="translate(-103.145 -324.435)"/>
            <path id="Path_181" d="M115.624 368.832l-.128-.013z" class="cls-5" data-name="Path 181" transform="translate(-101.54 -324.253)"/>
            <path id="Path_182" d="M104.782 371.7a.948.948 0 0 0-.079.2.945.945 0 0 1 .079-.2z" class="cls-5" data-name="Path 182" transform="translate(-92.051 -326.782)"/>
            <path id="Path_183" d="M113.754 368.677l-.149-.01z" class="cls-5" data-name="Path 183" transform="translate(-99.878 -324.12)"/>
            <path id="Path_184" d="M214.972 434.949l.278-.015.407-.026.3-.022c.127-.01.254-.022.381-.034l.311-.03c.119-.012.237-.027.355-.041q.7-.082 1.389-.2l.182-.03c.157-.027.313-.056.469-.086l.156-.03.5-.1.094-.021a28.908 28.908 0 0 0 11.691-5.52 73.647 73.647 0 0 1-17.893 2.044q-1.844 0-3.63-.076a29.149 29.149 0 0 0 4.92 4.163c-.43.019-.855.055-1.29.055.232 0 .464 0 .695-.009l.233-.008c.147-.001.3-.006.452-.014z" class="cls-4" data-name="Path 184" transform="translate(-184.587 -376.983)"/>
            <path id="Path_185" d="M123.246 446.094c-.127-.01-.255-.018-.381-.029q-1.086-.1-2.148-.277c-.117-.02-.233-.042-.35-.063a28.752 28.752 0 0 1-4.39-1.149l-.136-.046q-1.074-.381-2.107-.843l-.131-.059a29.107 29.107 0 0 1-3.82-2.084 28.843 28.843 0 0 0 9.533 3.98l.092.02q.249.053.5.1l.154.029c.156.03.313.059.471.086l.18.03q.691.116 1.393.2c.117.014.235.028.353.04l.312.03.38.034.3.022.407.026.278.015c.152.007.3.013.457.017l.233.008a29.018 29.018 0 0 1-1.58-.087z" class="cls-4" data-name="Path 185" transform="translate(-96.518 -388.191)"/>
            <path id="Path_186" d="M97.9 430.277l-.11-.026z" class="cls-4" data-name="Path 186" transform="translate(-85.971 -378.262)"/>
            <path id="Path_187" d="M104.877 431.9z" class="cls-4" data-name="Path 187" transform="translate(-92.203 -379.713)"/>
            <path id="Path_188" d="M91.92 428.8z" class="cls-4" data-name="Path 188" transform="translate(-80.813 -376.983)"/>
            <path id="Path_189" d="M98.265 433.6q.655.48 1.337.924-.683-.444-1.337-.924z" class="cls-4" data-name="Path 189" transform="translate(-86.391 -381.206)"/>
            <path id="Path_190" d="M91.926 428.8c.205.161.413.318.622.474q-.314-.232-.622-.474z" class="cls-4" data-name="Path 190" transform="translate(-80.818 -376.988)"/>
            <path id="Path_191" d="M17.411 182.5a29.033 29.033 0 0 1 .995-6.8H18.4c-7.753-1.01-13.973-3.093-17.142-5.725-.187.615-.35 1.241-.5 1.872l-.069.3c-.143.644-.269 1.3-.368 1.955v.018a29.258 29.258 0 0 0-.248 2.357c-.044.648-.073 1.3-.073 1.96 0-.485.03-.963.054-1.443 3.54 2.506 9.746 4.488 17.357 5.506z" class="cls-4" data-name="Path 191" transform="translate(0 -149.428)"/>
            <path id="Path_192" d="M.141 232.353v.023c.072.086.147.171.225.256l.063.067q.1.109.212.218l.037.038q.132.129.274.256l.043.038q.132.117.272.233l.033.027c3.1 2.545 9.068 4.569 16.5 5.6a29.1 29.1 0 0 1-.405-4.771c0-.255.012-.507.019-.76h-.008c-7.607-1.015-13.817-3-17.357-5.512-.019.475-.049.953-.049 1.434s.013.967.037 1.446.063.942.104 1.407z" class="cls-6" data-name="Path 192" transform="translate(0 -200.505)"/>
            <path id="Path_193" d="M47.974 104.591a29.033 29.033 0 0 1 2.743-3.94 72.144 72.144 0 0 1-10.791-1.4h-.006l-.508-.111-.112-.025-.468-.107-.125-.03q-.708-.168-1.386-.349l-.174-.046-.339-.094-.248-.07-.308-.089-.274-.082-.28-.085-.32-.1-.225-.071q-.262-.085-.517-.171l-.178-.062-.354-.124-.2-.072-.326-.12-.192-.072-.341-.133-.157-.062q-.245-.1-.484-.2v.005c-.35.471-.682.956-1 1.448l-.137.214c-.313.491-.615.989-.9 1.5h.008c.147.079.3.158.451.235l.144.072q.173.086.351.172l.149.071c.162.076.325.151.492.226l.022.01c.165.073.333.145.5.217l.165.069q.193.08.391.158l.17.067c.179.07.361.139.545.207l.038.014q.269.1.546.2l.188.065.424.143.193.063c.193.063.388.125.586.185l.068.021q.285.087.576.171l.212.061.451.126.218.059q.305.082.617.162l.109.028q.295.074.595.146l.239.056.472.109.242.054q.318.07.642.138l.152.031q.3.062.61.122l.264.051.488.091.268.049q.328.058.66.114l.2.032.62.1.287.044.5.074.288.041q.341.047.685.092l.224.028.636.077.305.035.521.057.306.032q.353.036.71.069z" class="cls-2" data-name="Path 193" transform="translate(-26.689 -85.258)"/>
            <path id="Path_194" d="M111.1 434.93a29.156 29.156 0 0 1-4.92-4.163l-.009-.009h-.015a72.836 72.836 0 0 1-12.671-1.584q-.377-.084-.747-.173l-.11-.026q-.358-.086-.708-.176c.205.161.413.318.622.474l.144.106q.655.48 1.337.924l.055.036a29.115 29.115 0 0 0 3.82 2.084l.131.059q1.033.461 2.107.843l.136.046a28.764 28.764 0 0 0 4.39 1.149c.117.021.233.043.35.063q1.061.177 2.148.277c.127.011.254.019.381.029.75.058 1.506.1 2.272.1.435-.004.861-.04 1.287-.059z" class="cls-6" data-name="Path 194" transform="translate(-80.814 -376.985)"/>
            <path id="Path_195" d="M125.734 388.487a3.129 3.129 0 0 0-1.933-2.9c-1.475-.865-4.048-1.45-3.867 0s5.739 4.289 5.8 2.9z" class="cls-2" data-name="Path 195" transform="translate(-105.434 -338.22)"/>
            <ellipse id="Ellipse_43" cx="1.45" cy=".967" class="cls-3" data-name="Ellipse 43" rx="1.45" ry=".967" transform="translate(29 25.133)"/>
        </g>
    </g>
</svg>
