<svg xmlns="http://www.w3.org/2000/svg" viewBox="0 0 70 70">
    <defs>
        <style>
            .cls-1{fill:#efe2dd}.cls-2{fill:#e1d3ce}.cls-3{fill:#cdbfba}.cls-4{fill:#b9acac}
        </style>
    </defs>
    <g id="moon">
        <path id="Path_216" d="M70 35A35 35 0 1 1 35 0a35 35 0 0 1 35 35zm0 0" class="cls-1" data-name="Path 216"/>
        <path id="Path_217" d="M114.671 99.621a35 35 0 0 1-62.925 21.1A35 35 0 0 0 104.4 74.855a34.89 34.89 0 0 1 10.271 24.766zm0 0" class="cls-2" data-name="Path 217" transform="translate(-44.671 -64.621)"/>
        <path id="Path_218" d="M337.817 27.829a10.8 10.8 0 1 1-16.944-12.965 35.091 35.091 0 0 1 16.944 12.965zm0 0" class="cls-3" data-name="Path 218" transform="translate(-274.092 -12.831)"/>
        <path id="Path_219" d="M343.212 92.925a10.808 10.808 0 0 1-19.462-.905 10.805 10.805 0 0 0 17.415-1.751q1.086 1.277 2.047 2.656zm0 0" class="cls-4" data-name="Path 219" transform="translate(-279.487 -77.928)"/>
        <path id="Path_220" d="M189.117 73.777a5.684 5.684 0 1 1-5.683-5.683 5.684 5.684 0 0 1 5.683 5.683zm0 0" class="cls-3" data-name="Path 220" transform="translate(-153.448 -58.784)"/>
        <path id="Path_221" d="M200.66 75.8a5.684 5.684 0 0 1-9.539 4.177 5.683 5.683 0 0 0 5.742-9.539 5.686 5.686 0 0 1 3.797 5.362zm0 0" class="cls-4" data-name="Path 221" transform="translate(-164.991 -60.811)"/>
        <path id="Path_222" d="M406.957 305.336a3.242 3.242 0 1 1-3.242-3.242 3.243 3.243 0 0 1 3.242 3.242zm0 0" class="cls-3" data-name="Path 222" transform="translate(-345.721 -260.792)"/>
        <path id="Path_223" d="M411.169 305.883a3.243 3.243 0 0 1-5.818 1.97 3.173 3.173 0 0 0 .746.087 3.245 3.245 0 0 0 2.576-5.214 3.243 3.243 0 0 1 2.496 3.157zm0 0" class="cls-4" data-name="Path 223" transform="translate(-349.932 -261.338)"/>
        <path id="Path_224" d="M258.9 197.774a2.309 2.309 0 1 1-2.309-2.309 2.309 2.309 0 0 1 2.309 2.309zm0 0" class="cls-3" data-name="Path 224" transform="translate(-219.516 -168.741)"/>
        <path id="Path_225" d="M203.894 330.435a4.627 4.627 0 1 1-4.627-4.627 4.626 4.626 0 0 1 4.627 4.627zm0 0" class="cls-3" data-name="Path 225" transform="translate(-168.03 -281.264)"/>
        <path id="Path_226" d="M213.13 330.83a4.626 4.626 0 0 1-7.79 3.374 4.756 4.756 0 0 0 .75.06 4.626 4.626 0 0 0 3.166-8 4.625 4.625 0 0 1 3.874 4.566zm0 0" class="cls-4" data-name="Path 226" transform="translate(-177.266 -281.659)"/>
        <g id="Group_32" data-name="Group 32" transform="translate(15.827 19.416)">
            <path id="Path_227" d="M120.38 360.3a2.309 2.309 0 1 1-2.309-2.309 2.309 2.309 0 0 1 2.309 2.309zm0 0" class="cls-3" data-name="Path 227" transform="translate(-115.762 -328.464)"/>
            <path id="Path_228" d="M362.147 187.5a1.261 1.261 0 1 1-1.261-1.261 1.261 1.261 0 0 1 1.261 1.261zm0 0" class="cls-3" data-name="Path 228" transform="translate(-326.284 -180.192)"/>
            <path id="Path_229" d="M171.046 238.812a1.261 1.261 0 1 1-1.261-1.261 1.262 1.262 0 0 1 1.261 1.261zm0 0" class="cls-3" data-name="Path 229" transform="translate(-161.31 -224.489)"/>
            <path id="Path_230" d="M385.1 238.112a1.261 1.261 0 1 1-1.261-1.261 1.262 1.262 0 0 1 1.261 1.261zm0 0" class="cls-3" data-name="Path 230" transform="translate(-346.096 -223.886)"/>
            <path id="Path_231" d="M118.288 143.277a1.261 1.261 0 1 1-1.261-1.261 1.262 1.262 0 0 1 1.261 1.261zm0 0" class="cls-3" data-name="Path 231" transform="translate(-115.765 -142.016)"/>
        </g>
    </g>
</svg>
