<svg xmlns="http://www.w3.org/2000/svg" viewBox="0 0 143 143">
    <defs>
        <style>
            .cls-1{opacity:.5;fill:url(#radial-gradient)}.cls-2{fill:#fd5f6e}.cls-3{fill:#fb7a5b}.cls-4{fill:#fe4382}.cls-5{fill:#b440a1}.cls-6{fill:#ff2796}.cls-7{fill:#fff}.cls-8{fill:#fcd999}.cls-9{filter:url(#Ellipse_46)}
        </style>
        <radialGradient id="radial-gradient" cx=".5" cy=".5" r=".5">
            <stop offset="0" stop-color="#fff"/>
            <stop offset="1" stop-color="#fff" stop-opacity="0"/>
        </radialGradient>
        <filter id="Ellipse_46" width="143" height="143" x="0" y="0" filterUnits="userSpaceOnUse">
            <feOffset dy="3"/>
            <feGaussianBlur result="blur" stdDeviation="7.5"/>
            <feFlood flood-opacity=".502"/>
            <feComposite in2="blur" operator="in"/>
            <feComposite in="SourceGraphic"/>
        </filter>
    </defs>
    <g id="nebulosas" transform="translate(-130.5 -382.5)">
        <g class="cls-9" transform="translate(130.5 382.5)">
            <circle id="Ellipse_46-2" cx="49" cy="49" r="49" class="cls-1" data-name="Ellipse 46" transform="translate(22.5 19.5)"/>
        </g>
        <g id="nebula" transform="translate(172.999 422)">
            <path id="Path_14" d="M236.237 359.364l-15.73 16.9a6.216 6.216 0 0 0 3.169.277c1.845-.492 3.038-2.678 4.73-3.656 1.635-.945 4.13-.873 5.529-2.271a22.8 22.8 0 0 0 5.292-8.259z" class="cls-2" data-name="Path 14" transform="translate(-195.527 -318.655)"/>
            <path id="Path_15" d="M29.013 166.168c1.635-.945 4.13-.873 5.529-2.271a22.779 22.779 0 0 0 6.168-11.25L14.3 126.238a22.8 22.8 0 0 0-8.259 5.292c-1.4 1.4-1.326 3.894-2.271 5.529-.978 1.692-3.163 2.885-3.656 4.73-.5 1.872.807 4 .807 5.924s-1.306 4.053-.807 5.924c.492 1.845 2.678 3.038 3.656 4.73.945 1.635.873 4.13 2.271 5.529s3.894 1.326 5.529 2.271c1.692.978 2.885 3.163 4.73 3.656 1.872.5 4-.807 5.924-.807a11.043 11.043 0 0 1 2.755.53c1.471-.77 2.565-2.529 4.034-3.378z" class="cls-3" data-name="Path 15" transform="translate(0 -111.938)"/>
            <path id="Path_16" d="M358.678 22.225c0-1.924 1.306-4.053.807-5.924-.492-1.845-2.678-3.038-3.656-4.73-.945-1.635-.873-4.13-2.271-5.529s-3.894-1.326-5.529-2.271c-1.692-.978-2.885-3.163-4.73-3.656a6.215 6.215 0 0 0-3.169.277l3.983 42.122L345.3 43.7a22.8 22.8 0 0 0 8.259-5.292c1.4-1.4 1.326-3.894 2.271-5.529.978-1.692 3.163-2.885 3.656-4.73.499-1.871-.808-3.999-.808-5.924z" class="cls-4" data-name="Path 16" transform="translate(-301.598 -.001)"/>
            <path id="Path_17" d="M162.3 32.878c.978-1.692 3.163-2.885 3.656-4.73.5-1.872-.807-4-.807-5.924s1.306-4.053.807-5.924c-.492-1.845-2.678-3.038-3.656-4.73-.945-1.635-.873-4.13-2.271-5.529s-3.894-1.326-5.529-2.271c-1.469-.849-2.562-2.608-4.033-3.379a11.037 11.037 0 0 1-2.755.53c-1.924 0-4.053-1.306-5.924-.807-1.845.492-3.038 2.678-4.73 3.656-1.635.945-4.13.873-5.529 2.271a22.8 22.8 0 0 0-5.292 8.259l28.213 28.213a22.875 22.875 0 0 0 5.58-4.1c1.395-1.404 1.323-3.9 2.27-5.535z" class="cls-2" data-name="Path 17" transform="translate(-111.933)"/>
            <path id="Path_18" d="M197.366 120.514a22.831 22.831 0 0 0-18.1-6.619l19.079 31.848a22.878 22.878 0 0 0 4.313-1.121 22.889 22.889 0 0 0-5.292-24.108z" class="cls-5" data-name="Path 18" transform="translate(-158.958 -100.922)"/>
            <path id="Path_19" d="M135.44 121.142a22.793 22.793 0 0 0-14.234-6.619 22.9 22.9 0 0 0-6.007 1.327 22.887 22.887 0 0 0 25.086 30.521 22.893 22.893 0 0 0-4.845-25.229z" class="cls-6" data-name="Path 19" transform="translate(-100.898 -101.55)"/>
            <circle id="Ellipse_37" cx=".967" cy=".967" r=".967" class="cls-7" data-name="Ellipse 37" transform="translate(16.342 52.196)"/>
            <path id="Path_20" d="M256 187.735V203.2a7.733 7.733 0 1 0 0-15.467z" class="cls-8" data-name="Path 20" transform="translate(-227.001 -166.468)"/>
            <g id="Group_15" data-name="Group 15" transform="translate(21.268 3.871)">
                <path id="Path_21" d="M199.335 195.468c0-4.271-1.731-7.733-3.867-7.733a7.733 7.733 0 1 0 0 15.467c2.132-.002 3.867-3.463 3.867-7.734z" class="cls-7" data-name="Path 21" transform="translate(-187.735 -170.339)"/>
                <circle id="Ellipse_38" cx=".967" cy=".967" r=".967" class="cls-7" data-name="Ellipse 38" transform="translate(30.931 12.472)"/>
                <circle id="Ellipse_39" cx=".967" cy=".967" r=".967" class="cls-7" data-name="Ellipse 39" transform="translate(27.064 8.606)"/>
                <circle id="Ellipse_40" cx=".967" cy=".967" r=".967" class="cls-7" data-name="Ellipse 40" transform="translate(8.625)"/>
                <circle id="Ellipse_41" cx=".967" cy=".967" r=".967" class="cls-7" data-name="Ellipse 41" transform="translate(27.064 22.301)"/>
            </g>
        </g>
    </g>
</svg>
