<svg xmlns="http://www.w3.org/2000/svg" viewBox="0 0 70 69.996">
    <defs>
        <style>
            .cls-1{fill:#9e69e2}.cls-2{fill:#8e4fd2}.cls-3{fill:#7038ba}.cls-4{fill:#65b2ff}.cls-5{fill:#fff}.cls-6{fill:#d0f6ff}.cls-7{fill:#0066e8}.cls-8{fill:#0f9be8}.cls-9{fill:#747e9e}.cls-10{fill:#474f6f}.cls-11{fill:#323b5a}.cls-12{fill:#ff9f00}.cls-13{fill:#ffd112}
        </style>
    </defs>
    <g id="telescope" transform="translate(.001 -.5)">
        <path id="Path_232" d="M70.015 35.5q0 .334-.007.666c0 .1 0 .2-.007.3 0 .13-.007.26-.012.388s-.01.253-.017.379c0 .083-.008.168-.013.252l-.015.264c-.01.149-.019.3-.032.446-.026.34-.056.678-.092 1.016l-.034.309a26.79 26.79 0 0 1-.086.686c-.012.084-.018.143-.029.214a33.586 33.586 0 0 1-.262 1.595c-.014.074-.027.149-.043.223q-.131.679-.291 1.347c-.025.1-.049.208-.075.311q-.121.5-.258.987a17.506 17.506 0 0 1-.157.551c-.03.106-.06.2-.091.3s-.068.224-.1.335q-.107.334-.218.667c-.158.466-.326.927-.5 1.385l-.1.253q-.192.485-.4.965l-.12.279q-.243.548-.5 1.087c-.05.1-.1.208-.152.31q-.28.566-.584 1.121l-.07.127c-.034.06-.064.122-.1.182s-.074.132-.111.2l-.039.055q-.127.224-.256.444c-.153.265-.312.528-.474.789l-.124.2a13.083 13.083 0 0 1-.218.344l-.063.1-.135.205-.017.026c-.064.1-.127.191-.191.286l-.163.238-.059.085c-.122.176-.245.35-.369.522l-.122.169c-.06.082-.119.163-.179.242l-.1.138-.129.169q-.143.191-.291.379c-.058.074-.115.148-.174.221v.005l-.036.038c-.071.089-.142.179-.215.266l-.053.066-.051.061a4.902 4.902 0 0 1-.114.138l-.145.169-.077.09q-.151.18-.308.358c-.076.09-.155.179-.233.268l-.134.149-.175.194-.054.06a26.58 26.58 0 0 0-.232.252l-.068.072-.167.176-.165.173-.073.075-.239.245c-.01.008-.018.018-.026.026l-.216.216c-.015.015-.032.03-.046.046s-.053.052-.08.078l-.111.107c-.083.083-.168.165-.253.246l-.249.236-.085.078c-.054.052-.111.1-.167.154l-.189.172-.217.194-.1.091a5.237 5.237 0 0 1-.159.138l-.1.088c-.086.075-.172.149-.26.223l-.21.176a1.88 1.88 0 0 1-.085.071c-.076.065-.154.128-.232.192l-.065.052a50.982 50.982 0 0 1-.471.376l-.279.216-.045.034-.22.167-.167.124c-.056.041-.1.078-.157.116l-.168.123-.1.068-.245.175-.149.1a3.97 3.97 0 0 1-.133.093c-.094.066-.189.13-.283.194s-.19.128-.286.191l-.059.04-.012.008-.21.138-.01.005c-.095.061-.19.123-.286.183l-.291.183-.017.011-.012.008-.264.161c-.034.022-.07.043-.105.063l-.331.2c-.077.046-.154.093-.232.137l-.223.128-.085.048-.049.027a6.97 6.97 0 0 1-.167.093l-.1.053-.114.063-.213.115-.185.1-.059.032-.169.089-.129.067-.078.04-.3.15-.124.062-.068.034q-.135.067-.271.131c-.014.009-.027.014-.041.021l-.3.144c-.03.015-.06.028-.092.042-.1.049-.209.1-.313.144l-.067.03-.2.092-.081.035-.119.052-.171.074-.234.1-.321.134q-.614.25-1.236.477-.15.055-.3.107a.167.167 0 0 1-.026.01l-.037.013-.065.023c-.028.01-.053.019-.081.027-.043.017-.087.03-.129.045l-.089.03-.042.015-.29.1a.307.307 0 0 1-.035.012l-.212.068a1.42 1.42 0 0 1-.086.027l-.194.062-.074.023-.4.122c-.116.034-.232.068-.349.1-.154.044-.309.087-.464.127l-.083.023-.028.007-.1.027-.113.029-.108.029-.342.084-.019.005-.175.041c-.081.021-.161.04-.244.058l-.1.023a.01.01 0 0 1-.007 0l-.07.017c-.062.015-.127.028-.191.042q-.172.039-.347.074a13.47 13.47 0 0 1-.349.071l-.213.043-.064.012-.367.067-.2.034a5.564 5.564 0 0 1-.2.033.3.3 0 0 1-.037.006 1.561 1.561 0 0 1-.095.015 3.512 3.512 0 0 1-.179.029c-.019 0-.038.007-.059.01-.1.017-.2.03-.293.045h-.062l-.3.042-.095.012a8.342 8.342 0 0 1-.228.03l-.1.012c-.1.013-.206.026-.309.037l-.044.005-.36.04h-.069l-.387.037a.678.678 0 0 0-.1.01l-.089.007-.171.014-.137.011c-.089.007-.179.014-.271.019l-.279.018c-.045 0-.092.007-.137.009l-.171.009c-.068 0-.138.007-.207.01-.045 0-.09.006-.137.007h-.123c-.065 0-.13.005-.2.007h-.167l-.27.007H34.331c-.112 0-.223 0-.334-.007h-.117q-.176 0-.353-.012h-.015a.42.42 0 0 1-.045 0h-.189l-.255-.014c-.121-.007-.242-.014-.362-.023-.1-.006-.2-.012-.3-.021s-.229-.018-.342-.027c-.037 0-.074-.005-.111-.01l-.1-.008-.056-.006-.135-.012-.179-.018h-.021L31.3 70.3l-.3-.033-.069-.009h-.038l-.234-.028-.247-.032H30.4l-.073-.011-.081-.011q-.162-.021-.321-.045c-.059-.008-.118-.016-.175-.026s-.126-.018-.189-.029l-.037-.005h-.021l-.069-.011-.108-.018a25.801 25.801 0 0 1-.678-.118c-.059-.012-.115-.02-.171-.032l-.065-.011-.168-.034a.853.853 0 0 1-.085-.017c-.081-.015-.16-.032-.239-.048-.139-.029-.279-.058-.417-.089l-.19-.042-.1-.022a1.215 1.215 0 0 1-.108-.025l-.164-.038c-.027-.005-.053-.012-.079-.019l-.151-.035-.028-.007-.138-.034-.269-.068h-.014l-.157-.041c-.025-.005-.048-.012-.073-.019-.185-.049-.371-.1-.554-.152l-.116-.033-.319-.093-.023-.007a20.214 20.214 0 0 1-.419-.127l-.28-.089-.128-.04-.062-.02q-.179-.058-.357-.119c-.025-.006-.048-.015-.072-.023l-.033-.011-.023-.01-.1-.035c-.054-.018-.111-.037-.166-.058l-.032-.011-.019-.007-.012-.005a21.021 21.021 0 0 1-.458-.167l-.175-.064c-.113-.044-.227-.086-.34-.131-.056-.02-.111-.042-.167-.064l-.085-.034-.043-.017c-.089-.036-.179-.071-.268-.108s-.146-.06-.219-.092a23.823 23.823 0 0 1-.528-.224l-.111-.048a.364.364 0 0 1-.038-.018l-.071-.032-.208-.093-.021-.01a6.01 6.01 0 0 1-.216-.1l-.134-.061-.03-.015a13.913 13.913 0 0 1-.369-.175l-.124-.06-.238-.116c-.1-.048-.194-.1-.291-.146l-.107-.054-.175-.09-.2-.105-.074-.04a30.219 30.219 0 0 1-.638-.348l-.121-.067-.064-.037-.135-.076-.239-.138c-.021-.011-.04-.022-.06-.036s-.071-.041-.107-.061a.48.48 0 0 1-.038-.023L17 65.509l-.074-.045-.193-.117-.16-.1-.044-.027q-.3-.185-.587-.375l-.183-.119-.012-.008-.075-.051c-.107-.069-.212-.14-.317-.213l-.152-.1-.074-.052a5.91 5.91 0 0 1-.172-.119c-.1-.067-.194-.136-.29-.205l-.074-.053c-.019-.012-.037-.026-.056-.04l-.1-.069a8.159 8.159 0 0 1-.27-.2l-.019-.014a32.155 32.155 0 0 1-.368-.277l-.045-.034-.067-.052-.1-.076c-.131-.1-.263-.205-.393-.309a.211.211 0 0 1-.022-.018l-.134-.107c-.1-.077-.19-.154-.284-.233l-.056-.045-.033-.027q-.187-.156-.369-.312c-.057-.048-.113-.1-.169-.146l-.152-.131-.07-.061c-.051-.044-.1-.089-.149-.133l-.186-.166-.2-.184-.074-.067-.052-.048a48.998 48.998 0 0 1-.4-.378l-.059-.057a8.559 8.559 0 0 1-.194-.187l-.074-.071-.117-.117c-.06-.059-.122-.119-.181-.181l-.044-.042a8.723 8.723 0 0 1-.135-.139l-.018-.018-.033-.034-.02-.019-.05-.06-.078-.081-.115-.119a11.79 11.79 0 0 1-.217-.23l-.167-.181c-.055-.061-.108-.115-.161-.174l-.045-.049a27.918 27.918 0 0 1-.479-.54 61.761 61.761 0 0 1-.334-.387l-.027-.033-.012-.015L8.212 58c-.041-.048-.081-.1-.12-.145-.017-.018-.032-.037-.045-.055s-.049-.059-.074-.089l-.054-.068-.019-.014-.137-.168-.163-.2v-.005l-.044-.056-.133-.168-.2-.256-.094-.124-.067-.087c-.054-.073-.111-.146-.164-.221s-.119-.16-.179-.242c-.111-.153-.222-.306-.33-.462l-.033-.045-.3-.442-.028-.043a.2.2 0 0 1-.017-.023l-.232-.349-.079-.125c-.012-.021-.025-.04-.038-.059q-.281-.431-.547-.871a2.848 2.848 0 0 1-.073-.117c-.081-.136-.163-.272-.242-.409a.054.054 0 0 0-.008-.015 13.001 13.001 0 0 1-.131-.224c-.089-.156-.178-.312-.264-.468-.058-.1-.115-.208-.17-.312l-.1-.179c-.034-.06-.053-.1-.081-.151-.081-.153-.161-.308-.239-.463l-.252-.5a34.195 34.195 0 0 1-.554-1.191v-.008c-.06-.134-.117-.268-.175-.4s-.116-.273-.172-.41-.1-.254-.154-.382a29.148 29.148 0 0 1-.253-.652c-.033-.087-.064-.173-.1-.258-.049-.134-.1-.268-.145-.4q-.291-.827-.541-1.669a16.341 16.341 0 0 1-.124-.432q-.084-.291-.16-.585l-.077-.301a23.387 23.387 0 0 1-.108-.439q-.043-.174-.082-.35c-.019-.076-.035-.153-.052-.23l-.067-.3a32.234 32.234 0 0 1-.249-1.291q-.054-.292-.1-.586A4.911 4.911 0 0 0 .4 40.7a5.369 5.369 0 0 1-.027-.183l-.037-.265c-.012-.085-.023-.17-.033-.256C.3 39.962.3 39.935.3 39.906l-.042-.344a2.426 2.426 0 0 1-.014-.126l-.034-.308c-.012-.123-.025-.245-.036-.369l-.03-.341a9.61 9.61 0 0 1-.019-.239l-.03-.435a42.162 42.162 0 0 1-.046-.894q-.03-.673-.029-1.35c0-.2 0-.4.005-.591 0-.164.005-.327.011-.488 0-.074 0-.147.009-.221q.008-.251.02-.5c.01-.173.019-.344.032-.517a20.056 20.056 0 0 1 .055-.726c.009-.123.02-.245.033-.366q.034-.359.078-.717a18.57 18.57 0 0 1 .074-.59c.021-.164.044-.327.07-.49a.292.292 0 0 1 .005-.037c.012-.093.027-.185.042-.278.029-.181.059-.362.09-.541q.031-.183.066-.365c.02-.111.041-.222.064-.332l.052-.268a31.691 31.691 0 0 1 .272-1.215c.029-.112.06-.253.093-.379s.059-.231.09-.346l.052-.2q.08-.3.166-.59c.037-.13.075-.258.115-.387q.164-.546.346-1.083c.046-.137.093-.271.14-.406s.1-.269.145-.4.093-.252.14-.377q.167-.439.345-.872c.037-.093.076-.186.116-.279a3.35 3.35 0 0 0 .052-.126l.122-.283q.226-.517.468-1.023c.052-.113.106-.227.162-.339.018-.037.034-.072.053-.108.075-.154.152-.309.231-.462q.133-.26.272-.52.121-.23.247-.458c.085-.156.173-.311.26-.464l.011-.019a35.008 35.008 0 0 1 60.787 0l.011.019c.088.153.175.308.26.464s.167.3.247.458c.093.173.183.346.272.52q.119.23.231.462a11.68 11.68 0 0 1 .216.447q.242.506.467 1.023l.122.283.052.126c.04.093.079.186.116.279q.179.433.344.872c.048.126.1.252.141.377s.1.268.145.4.095.27.141.406q.183.537.346 1.083a41.097 41.097 0 0 1 .28.977c.018.067.036.132.052.2.031.115.061.23.09.346s.065.253.093.379.054.225.081.339a31.691 31.691 0 0 1 .243 1.144c.023.111.044.222.065.332s.045.244.065.365c.032.179.062.36.09.541.015.093.03.185.043.278a15.608 15.608 0 0 1 .075.527l.018.138c.02.151.04.3.056.452q.043.357.078.717c.012.122.023.243.033.366a20.056 20.056 0 0 1 .055.726c.013.173.022.344.032.517s.015.333.021.5c0 .074.005.147.008.221a38.421 38.421 0 0 1 .015 1.079zm0 0" class="cls-1" data-name="Path 232" transform="translate(-.018)"/>
        <path id="Path_233" d="M70 147.215q0 1.593-.144 3.181a35 35 0 0 1-46.063 29.983A35.03 35.03 0 0 1 1.129 138.37a35 35 0 0 1 1.626-4.781q.5-1.175 1.08-2.311c.142-.276.5-1.289.793-1.367.781.976 1.338 2.168 2.079 3.184a34.988 34.988 0 0 0 48.493 7.98 35.268 35.268 0 0 0 7.991-7.84q.6-.812 1.151-1.658a13.255 13.255 0 0 1 1.038-1.664c.176.1.244.339.342.525.189.354.379.707.56 1.065q.582 1.16 1.081 2.36A34.949 34.949 0 0 1 70 147.215zm0 0" class="cls-2" data-name="Path 233" transform="translate(0 -111.717)"/>
        <path id="Path_234" d="M92.215 377.943a35 35 0 0 1-48.57 13.516 35.6 35.6 0 0 1-13.04-13.552 6.809 6.809 0 0 0 1.673.037h52.1a72.924 72.924 0 0 0 7.845-.016zm0 0" class="cls-3" data-name="Path 234" transform="translate(-26.422 -325.808)"/>
        <path id="Path_235" d="M247.57 336.738v24.009H247.488l-.27.007H245.812c-.112 0-.223 0-.334-.007h-.135q-.176 0-.353-.012h-.015v-23.997zm0 0" class="cls-4" data-name="Path 235" transform="translate(-211.482 -290.268)"/>
        <path id="Path_236" d="M188.712 334.111l-1.262 3.062-.869 2.106-.368.894-6.789 16.475-.028-.007-.138-.034-.269-.068h-.014l-.157-.041c-.025-.005-.048-.012-.073-.019-.185-.049-.371-.1-.554-.152l-.116-.033-.319-.093-.023-.007a20.214 20.214 0 0 1-.419-.127l-.28-.089-.128-.04 6.864-16.657 2.539-6.16 1.139.469.063.026zm0 0" class="cls-5" data-name="Path 236" transform="translate(-152.721 -287.146)"/>
        <path id="Path_237" d="M256.651 356.091l-.4.122c-.116.034-.232.068-.349.1-.154.044-.309.087-.464.127l-.083.023-.028.007-.1.027-.113.029-.108.029-.342.084-.019.005-.175.041c-.081.021-.161.04-.244.058l-.1.023-6.713-16.29-.492-1.2-.868-2.106-1.237-3-.026-.063.026-.011 1.174-.484.061-.026 1.139-.469.2.495.019.046 2.316 5.619zm0 0" class="cls-5" data-name="Path 237" transform="translate(-211.32 -287.146)"/>
        <path id="Path_238" d="M210.5 411.223h-13.061a1.3 1.3 0 0 1 0-2.6H210.5a1.3 1.3 0 0 1 0 2.6zm0 0" class="cls-6" data-name="Path 238" transform="translate(-169.326 -352.327)"/>
        <path id="Path_239" d="M91.762 292.132l7.81-3.7 2.283 5.987-8.289 2.441zm0 0" class="cls-5" data-name="Path 239" transform="translate(-79.217 -248.568)"/>
        <path id="Path_240" d="M184.7 174.962l-5.137-13.469-34.833 15.865 3.419 8.966zm0 0" class="cls-7" data-name="Path 240" transform="translate(-124.944 -138.982)"/>
        <path id="Path_241" d="M182.135 168.227l-2.568-6.734-34.837 15.865 1.71 4.482zm0 0" class="cls-4" data-name="Path 241" transform="translate(-124.944 -138.982)"/>
        <path id="Path_242" d="M188.323 184.457l-1.588-4.164-34.835 15.865.73 1.912zm0 0" class="cls-8" data-name="Path 242" transform="translate(-131.132 -155.212)"/>
        <path id="Path_243" d="M382.707 151.383l3.975-1.516L392.453 165l-3.975 1.516zm0 0" class="cls-9" data-name="Path 243" transform="translate(-330.385 -128.946)"/>
        <path id="Path_244" d="M392.2 176.254l3.975-1.516 4.474 11.729-3.975 1.516zm0 0" class="cls-10" data-name="Path 244" transform="translate(-338.576 -150.417)"/>
        <path id="Path_245" d="M126.676 264.251l3.975-1.516 4.386 11.5-3.975 1.516zm0 0" class="cls-9" data-name="Path 245" transform="translate(-109.358 -226.382)"/>
        <path id="Path_246" d="M134.363 284.411l3.975-1.516 3.335 8.744-3.975 1.516zm0 0" class="cls-10" data-name="Path 246" transform="translate(-115.994 -243.786)"/>
        <path id="Path_247" d="M142.715 306.305l3.975-1.516 2.193 5.75-3.975 1.516zm0 0" class="cls-11" data-name="Path 247" transform="translate(-123.204 -262.687)"/>
        <path id="Path_248" d="M58.066 299.033l5.145-1.963 3.346 8.771-5.145 1.959zm0 0" class="cls-9" data-name="Path 248" transform="translate(-50.129 -256.024)"/>
        <path id="Path_249" d="M63.133 312.314l5.145-1.963 2.653 6.956-5.146 1.963zm0 0" class="cls-10" data-name="Path 249" transform="translate(-54.503 -267.489)"/>
        <path id="Path_250" d="M70.3 331.107l5.145-1.963 1.673 4.386-5.146 1.963zm0 0" class="cls-11" data-name="Path 250" transform="translate(-60.69 -283.713)"/>
        <path id="Path_251" d="M403.813 206.712l3.975-1.516 2.885 7.565-3.975 1.516zm0 0" class="cls-11" data-name="Path 251" transform="translate(-348.605 -176.71)"/>
        <path id="Path_252" d="M243.014 324.943h-2.371a.714.714 0 0 1-.714-.714v-2.156a.713.713 0 0 1 .714-.714h2.371a.713.713 0 0 1 .714.714v2.156a.714.714 0 0 1-.714.714zm0 0" class="cls-11" data-name="Path 252" transform="translate(-207.128 -276.992)"/>
        <path id="Path_253" d="M233.617 299.949h-5.653a.781.781 0 0 0-.78.781v1.276a.78.78 0 0 0 .78.78h5.653a.78.78 0 0 0 .78-.78v-1.276a.781.781 0 0 0-.78-.781zm0 0" class="cls-12" data-name="Path 253" transform="translate(-196.125 -258.509)"/>
        <path id="Path_254" d="M237.668 290.792a3.094 3.094 0 1 1-3.094-3.093 3.094 3.094 0 0 1 3.094 3.093zm0 0" class="cls-13" data-name="Path 254" transform="translate(-199.834 -247.934)"/>
        <path id="Path_255" d="M244.227 298.582a1.86 1.86 0 1 1-1.86-1.86 1.86 1.86 0 0 1 1.86 1.86zm0 0" class="cls-12" data-name="Path 255" transform="translate(-207.627 -255.724)"/>
        <path id="Path_256" d="M251.759 307.532a.442.442 0 1 1-.442-.442.443.443 0 0 1 .442.442zm0 0" class="cls-11" data-name="Path 256" transform="translate(-216.577 -264.673)"/>
        <path id="Path_257" d="M366.2 68.157h-.208a1.672 1.672 0 0 1-1.672-1.672v-.208h-1.191v.208a1.671 1.671 0 0 1-1.672 1.672h-.208v1.191h.208a1.672 1.672 0 0 1 1.672 1.672v.209h1.191v-.209a1.672 1.672 0 0 1 1.672-1.672h.208zm0 0" class="cls-13" data-name="Path 257" transform="translate(-311.858 -56.784)"/>
        <path id="Path_258" d="M419.768 292.876h-.208a1.672 1.672 0 0 1-1.672-1.672V291H416.7v.208a1.671 1.671 0 0 1-1.672 1.672h-.208v1.191h.208a1.672 1.672 0 0 1 1.672 1.672v.209h1.191v-.209a1.672 1.672 0 0 1 1.672-1.672h.208zm0 0" class="cls-13" data-name="Path 258" transform="translate(-358.104 -250.78)"/>
        <path id="Path_259" d="M154.436 57.626h-.208a1.671 1.671 0 0 1-1.672-1.672v-.208h-1.191v.208a1.671 1.671 0 0 1-1.672 1.672h-.208v1.191h.208a1.671 1.671 0 0 1 1.672 1.672v.211h1.191v-.208a1.671 1.671 0 0 1 1.672-1.672h.208zm0 0" class="cls-13" data-name="Path 259" transform="translate(-129.048 -47.693)"/>
        <path id="Path_260" d="M262.4 138.009h-.208a1.672 1.672 0 0 1-1.672-1.672v-.208h-1.191v.208a1.671 1.671 0 0 1-1.672 1.672h-.208v1.191h.208a1.671 1.671 0 0 1 1.672 1.672v.208h1.191v-.208a1.672 1.672 0 0 1 1.672-1.672h.208zm0 0" class="cls-5" data-name="Path 260" transform="translate(-222.252 -117.086)"/>
        <path id="Path_261" d="M78.225 179.88h-.208a1.671 1.671 0 0 1-1.672-1.672V178h-1.191v.208a1.672 1.672 0 0 1-1.672 1.672h-.209v1.191h.209a1.672 1.672 0 0 1 1.672 1.672v.208h1.191v-.208a1.671 1.671 0 0 1 1.672-1.672h.208zm0 0" class="cls-5" data-name="Path 261" transform="translate(-63.257 -153.232)"/>
    </g>
</svg>
